<mxfile host="app.diagrams.net" modified="2024-04-29T23:56:17.948Z" agent="Mozilla/5.0 (Windows NT 10.0; Win64; x64; rv:124.0) Gecko/20100101 Firefox/124.0" etag="XCfMUSQbKOHXy-rr3tB-" version="24.3.0" type="device">
  <diagram name="Seite-1" id="K_IeSaYbBoSOYS_3U_RQ">
    <mxGraphModel dx="1434" dy="794" grid="0" gridSize="10" guides="1" tooltips="1" connect="1" arrows="1" fold="1" page="1" pageScale="1" pageWidth="1169" pageHeight="1654" math="0" shadow="0">
      <root>
        <mxCell id="0" />
        <mxCell id="1" parent="0" />
        <mxCell id="YN6oH1AB4B91Iy4vesWQ-43" style="edgeStyle=orthogonalEdgeStyle;rounded=0;orthogonalLoop=1;jettySize=auto;html=1;exitX=0.5;exitY=1;exitDx=0;exitDy=0;entryX=0.5;entryY=0;entryDx=0;entryDy=0;" edge="1" parent="1" source="YN6oH1AB4B91Iy4vesWQ-2" target="YN6oH1AB4B91Iy4vesWQ-4">
          <mxGeometry relative="1" as="geometry" />
        </mxCell>
        <mxCell id="YN6oH1AB4B91Iy4vesWQ-2" value="&lt;font size=&quot;1&quot;&gt;&lt;b style=&quot;font-size: 18px;&quot;&gt;Input: audio features&lt;/b&gt;&lt;/font&gt;" style="rounded=0;whiteSpace=wrap;html=1;" vertex="1" parent="1">
          <mxGeometry x="303" y="63" width="236" height="60" as="geometry" />
        </mxCell>
        <mxCell id="YN6oH1AB4B91Iy4vesWQ-3" value="&lt;font style=&quot;font-size: 18px;&quot;&gt;&lt;b&gt;Conv1D&lt;/b&gt;&lt;/font&gt;" style="rounded=0;whiteSpace=wrap;html=1;" vertex="1" parent="1">
          <mxGeometry x="629.5" y="226" width="131" height="60" as="geometry" />
        </mxCell>
        <mxCell id="YN6oH1AB4B91Iy4vesWQ-4" value="&lt;font style=&quot;font-size: 18px;&quot;&gt;&lt;b&gt;Linear, 256&lt;br&gt;&lt;/b&gt;&lt;/font&gt;" style="rounded=0;whiteSpace=wrap;html=1;" vertex="1" parent="1">
          <mxGeometry x="354" y="230" width="134" height="60" as="geometry" />
        </mxCell>
        <mxCell id="YN6oH1AB4B91Iy4vesWQ-5" value="&lt;font style=&quot;font-size: 18px;&quot;&gt;&lt;b&gt;Transfomer Block&lt;br&gt;&lt;/b&gt;&lt;/font&gt;" style="rounded=0;whiteSpace=wrap;html=1;fillColor=#dae8fc;strokeColor=#6c8ebf;" vertex="1" parent="1">
          <mxGeometry x="419" y="389" width="273" height="60" as="geometry" />
        </mxCell>
        <mxCell id="YN6oH1AB4B91Iy4vesWQ-6" value="" style="edgeStyle=orthogonalEdgeStyle;rounded=0;orthogonalLoop=1;jettySize=auto;html=1;" edge="1" parent="1" source="YN6oH1AB4B91Iy4vesWQ-7" target="YN6oH1AB4B91Iy4vesWQ-23">
          <mxGeometry relative="1" as="geometry" />
        </mxCell>
        <mxCell id="YN6oH1AB4B91Iy4vesWQ-7" value="&lt;font style=&quot;font-size: 18px;&quot;&gt;&lt;b&gt;Transfomer Block&lt;br&gt;&lt;/b&gt;&lt;/font&gt;" style="rounded=0;whiteSpace=wrap;html=1;fillColor=#dae8fc;strokeColor=#6c8ebf;" vertex="1" parent="1">
          <mxGeometry x="412" y="517" width="273" height="60" as="geometry" />
        </mxCell>
        <mxCell id="YN6oH1AB4B91Iy4vesWQ-8" style="edgeStyle=orthogonalEdgeStyle;rounded=0;orthogonalLoop=1;jettySize=auto;html=1;exitX=0.5;exitY=1;exitDx=0;exitDy=0;entryX=0.626;entryY=0;entryDx=0;entryDy=0;entryPerimeter=0;" edge="1" parent="1" source="YN6oH1AB4B91Iy4vesWQ-3" target="YN6oH1AB4B91Iy4vesWQ-5">
          <mxGeometry relative="1" as="geometry" />
        </mxCell>
        <mxCell id="YN6oH1AB4B91Iy4vesWQ-9" style="edgeStyle=orthogonalEdgeStyle;rounded=0;orthogonalLoop=1;jettySize=auto;html=1;exitX=0.5;exitY=1;exitDx=0;exitDy=0;entryX=0.44;entryY=0;entryDx=0;entryDy=0;entryPerimeter=0;" edge="1" parent="1" source="YN6oH1AB4B91Iy4vesWQ-4" target="YN6oH1AB4B91Iy4vesWQ-5">
          <mxGeometry relative="1" as="geometry" />
        </mxCell>
        <mxCell id="YN6oH1AB4B91Iy4vesWQ-10" value="" style="endArrow=classic;html=1;rounded=0;" edge="1" parent="1">
          <mxGeometry width="50" height="50" relative="1" as="geometry">
            <mxPoint x="478" y="339" as="sourcePoint" />
            <mxPoint x="478" y="389" as="targetPoint" />
          </mxGeometry>
        </mxCell>
        <mxCell id="YN6oH1AB4B91Iy4vesWQ-11" value="" style="group" vertex="1" connectable="0" parent="1">
          <mxGeometry x="423" y="449" width="251" height="67" as="geometry" />
        </mxCell>
        <mxCell id="YN6oH1AB4B91Iy4vesWQ-12" value="" style="edgeStyle=orthogonalEdgeStyle;rounded=0;orthogonalLoop=1;jettySize=auto;html=1;fontSize=8;" edge="1" parent="YN6oH1AB4B91Iy4vesWQ-11">
          <mxGeometry relative="1" as="geometry">
            <mxPoint x="129.8881118881119" as="sourcePoint" />
            <mxPoint x="129.8881118881119" y="67" as="targetPoint" />
          </mxGeometry>
        </mxCell>
        <mxCell id="YN6oH1AB4B91Iy4vesWQ-13" value="" style="edgeStyle=segmentEdgeStyle;endArrow=classic;html=1;curved=0;rounded=0;endSize=8;startSize=8;fontSize=8;" edge="1" parent="YN6oH1AB4B91Iy4vesWQ-11">
          <mxGeometry width="50" height="50" relative="1" as="geometry">
            <mxPoint y="19.541666666666664" as="sourcePoint" />
            <mxPoint x="251" y="67" as="targetPoint" />
          </mxGeometry>
        </mxCell>
        <mxCell id="YN6oH1AB4B91Iy4vesWQ-14" value="" style="edgeStyle=segmentEdgeStyle;endArrow=classic;html=1;curved=0;rounded=0;endSize=8;startSize=8;fontSize=8;" edge="1" parent="YN6oH1AB4B91Iy4vesWQ-11">
          <mxGeometry width="50" height="50" relative="1" as="geometry">
            <mxPoint y="19.541666666666664" as="sourcePoint" />
            <mxPoint y="67" as="targetPoint" />
          </mxGeometry>
        </mxCell>
        <mxCell id="YN6oH1AB4B91Iy4vesWQ-15" value="&lt;b style=&quot;font-size: 14px;&quot;&gt;q&lt;/b&gt;" style="text;html=1;align=center;verticalAlign=middle;whiteSpace=wrap;rounded=0;" vertex="1" parent="YN6oH1AB4B91Iy4vesWQ-11">
          <mxGeometry x="-26" y="26" width="22" height="30" as="geometry" />
        </mxCell>
        <mxCell id="YN6oH1AB4B91Iy4vesWQ-16" value="&lt;b&gt;&lt;font style=&quot;font-size: 14px;&quot;&gt;k&lt;/font&gt;&lt;/b&gt;" style="text;html=1;align=center;verticalAlign=middle;whiteSpace=wrap;rounded=0;" vertex="1" parent="YN6oH1AB4B91Iy4vesWQ-11">
          <mxGeometry x="102" y="26" width="22" height="30" as="geometry" />
        </mxCell>
        <mxCell id="YN6oH1AB4B91Iy4vesWQ-17" value="&lt;b&gt;&lt;font style=&quot;font-size: 14px;&quot;&gt;v&lt;/font&gt;&lt;/b&gt;" style="text;html=1;align=center;verticalAlign=middle;whiteSpace=wrap;rounded=0;" vertex="1" parent="YN6oH1AB4B91Iy4vesWQ-11">
          <mxGeometry x="227" y="26" width="22" height="30" as="geometry" />
        </mxCell>
        <mxCell id="YN6oH1AB4B91Iy4vesWQ-18" value="&lt;b&gt;&lt;font style=&quot;font-size: 14px;&quot;&gt;k&lt;/font&gt;&lt;/b&gt;" style="text;html=1;align=center;verticalAlign=middle;whiteSpace=wrap;rounded=0;" vertex="1" parent="1">
          <mxGeometry x="446" y="344" width="22" height="30" as="geometry" />
        </mxCell>
        <mxCell id="YN6oH1AB4B91Iy4vesWQ-19" value="&lt;b&gt;&lt;font style=&quot;font-size: 14px;&quot;&gt;v&lt;/font&gt;&lt;/b&gt;" style="text;html=1;align=center;verticalAlign=middle;whiteSpace=wrap;rounded=0;" vertex="1" parent="1">
          <mxGeometry x="510" y="344" width="22" height="30" as="geometry" />
        </mxCell>
        <mxCell id="YN6oH1AB4B91Iy4vesWQ-20" value="&lt;b style=&quot;font-size: 14px;&quot;&gt;q&lt;/b&gt;" style="text;html=1;align=center;verticalAlign=middle;whiteSpace=wrap;rounded=0;" vertex="1" parent="1">
          <mxGeometry x="563" y="344" width="22" height="30" as="geometry" />
        </mxCell>
        <mxCell id="YN6oH1AB4B91Iy4vesWQ-21" value="" style="group" vertex="1" connectable="0" parent="1">
          <mxGeometry x="435" y="662" width="227" height="200" as="geometry" />
        </mxCell>
        <mxCell id="YN6oH1AB4B91Iy4vesWQ-23" value="&lt;font style=&quot;font-size: 18px;&quot;&gt;&lt;b&gt;AVG Pool&lt;br&gt;&lt;/b&gt;&lt;/font&gt;" style="rounded=0;whiteSpace=wrap;html=1;" vertex="1" parent="YN6oH1AB4B91Iy4vesWQ-21">
          <mxGeometry x="57" width="114" height="60" as="geometry" />
        </mxCell>
        <mxCell id="YN6oH1AB4B91Iy4vesWQ-46" value="&lt;font style=&quot;font-size: 18px;&quot;&gt;&lt;b&gt;Linear&lt;/b&gt;&lt;/font&gt;" style="rounded=0;whiteSpace=wrap;html=1;" vertex="1" parent="YN6oH1AB4B91Iy4vesWQ-21">
          <mxGeometry x="57" y="105" width="114" height="60" as="geometry" />
        </mxCell>
        <mxCell id="YN6oH1AB4B91Iy4vesWQ-47" value="" style="edgeStyle=orthogonalEdgeStyle;rounded=0;orthogonalLoop=1;jettySize=auto;html=1;" edge="1" parent="YN6oH1AB4B91Iy4vesWQ-21" source="YN6oH1AB4B91Iy4vesWQ-23" target="YN6oH1AB4B91Iy4vesWQ-46">
          <mxGeometry relative="1" as="geometry" />
        </mxCell>
        <mxCell id="YN6oH1AB4B91Iy4vesWQ-25" value="" style="group" vertex="1" connectable="0" parent="1">
          <mxGeometry x="827" y="248" width="179" height="508" as="geometry" />
        </mxCell>
        <mxCell id="YN6oH1AB4B91Iy4vesWQ-26" value="" style="rounded=0;whiteSpace=wrap;html=1;fillColor=#dae8fc;strokeColor=#6c8ebf;" vertex="1" parent="YN6oH1AB4B91Iy4vesWQ-25">
          <mxGeometry y="30" width="179" height="478" as="geometry" />
        </mxCell>
        <mxCell id="YN6oH1AB4B91Iy4vesWQ-27" value="" style="edgeStyle=orthogonalEdgeStyle;rounded=0;orthogonalLoop=1;jettySize=auto;html=1;" edge="1" parent="YN6oH1AB4B91Iy4vesWQ-25" target="YN6oH1AB4B91Iy4vesWQ-29">
          <mxGeometry relative="1" as="geometry">
            <mxPoint x="85" y="74" as="sourcePoint" />
          </mxGeometry>
        </mxCell>
        <mxCell id="YN6oH1AB4B91Iy4vesWQ-28" value="" style="edgeStyle=orthogonalEdgeStyle;rounded=0;orthogonalLoop=1;jettySize=auto;html=1;" edge="1" parent="YN6oH1AB4B91Iy4vesWQ-25" source="YN6oH1AB4B91Iy4vesWQ-29" target="YN6oH1AB4B91Iy4vesWQ-31">
          <mxGeometry relative="1" as="geometry" />
        </mxCell>
        <mxCell id="YN6oH1AB4B91Iy4vesWQ-29" value="&lt;font style=&quot;font-size: 15px;&quot;&gt;&lt;b&gt;Multi-Head attention&lt;br&gt;&lt;/b&gt;&lt;/font&gt;" style="rounded=0;whiteSpace=wrap;html=1;" vertex="1" parent="YN6oH1AB4B91Iy4vesWQ-25">
          <mxGeometry x="25" y="127.5" width="120" height="60" as="geometry" />
        </mxCell>
        <mxCell id="YN6oH1AB4B91Iy4vesWQ-30" value="" style="edgeStyle=orthogonalEdgeStyle;rounded=0;orthogonalLoop=1;jettySize=auto;html=1;" edge="1" parent="YN6oH1AB4B91Iy4vesWQ-25" source="YN6oH1AB4B91Iy4vesWQ-31" target="YN6oH1AB4B91Iy4vesWQ-32">
          <mxGeometry relative="1" as="geometry" />
        </mxCell>
        <mxCell id="YN6oH1AB4B91Iy4vesWQ-31" value="&lt;font style=&quot;font-size: 15px;&quot;&gt;&lt;b&gt;Add &amp;amp; Norm&lt;br&gt;&lt;/b&gt;&lt;/font&gt;" style="rounded=0;whiteSpace=wrap;html=1;" vertex="1" parent="YN6oH1AB4B91Iy4vesWQ-25">
          <mxGeometry x="25" y="231" width="120" height="60" as="geometry" />
        </mxCell>
        <mxCell id="YN6oH1AB4B91Iy4vesWQ-32" value="&lt;font style=&quot;font-size: 15px;&quot;&gt;&lt;b&gt;Feed Forward&lt;br&gt;&lt;/b&gt;&lt;/font&gt;" style="rounded=0;whiteSpace=wrap;html=1;" vertex="1" parent="YN6oH1AB4B91Iy4vesWQ-25">
          <mxGeometry x="25" y="344" width="120" height="60" as="geometry" />
        </mxCell>
        <mxCell id="YN6oH1AB4B91Iy4vesWQ-33" value="" style="shape=waypoint;sketch=0;fillStyle=solid;size=6;pointerEvents=1;points=[];fillColor=none;resizable=0;rotatable=0;perimeter=centerPerimeter;snapToPoint=1;" vertex="1" parent="YN6oH1AB4B91Iy4vesWQ-25">
          <mxGeometry x="75" y="88" width="20" height="20" as="geometry" />
        </mxCell>
        <mxCell id="YN6oH1AB4B91Iy4vesWQ-34" value="" style="edgeStyle=orthogonalEdgeStyle;rounded=0;orthogonalLoop=1;jettySize=auto;html=1;" edge="1" parent="YN6oH1AB4B91Iy4vesWQ-25">
          <mxGeometry relative="1" as="geometry">
            <mxPoint x="86" y="404" as="sourcePoint" />
            <mxPoint x="86" y="458" as="targetPoint" />
          </mxGeometry>
        </mxCell>
        <mxCell id="YN6oH1AB4B91Iy4vesWQ-35" value="" style="shape=waypoint;sketch=0;fillStyle=solid;size=6;pointerEvents=1;points=[];fillColor=none;resizable=0;rotatable=0;perimeter=centerPerimeter;snapToPoint=1;" vertex="1" parent="YN6oH1AB4B91Iy4vesWQ-25">
          <mxGeometry x="76" y="418" width="20" height="20" as="geometry" />
        </mxCell>
        <mxCell id="YN6oH1AB4B91Iy4vesWQ-36" value="&lt;font style=&quot;font-size: 13px;&quot;&gt;&lt;b&gt;&lt;font style=&quot;font-size: 13px;&quot;&gt;Positional Encoding&lt;/font&gt;&lt;/b&gt;&lt;/font&gt;" style="text;html=1;align=center;verticalAlign=middle;whiteSpace=wrap;rounded=0;" vertex="1" parent="YN6oH1AB4B91Iy4vesWQ-25">
          <mxGeometry x="95" y="78.5" width="67" height="39" as="geometry" />
        </mxCell>
        <mxCell id="YN6oH1AB4B91Iy4vesWQ-37" value="&lt;font style=&quot;font-size: 13px;&quot;&gt;&lt;b&gt;&lt;font style=&quot;font-size: 13px;&quot;&gt;Positional Encoding&lt;/font&gt;&lt;/b&gt;&lt;/font&gt;" style="text;html=1;align=center;verticalAlign=middle;whiteSpace=wrap;rounded=0;" vertex="1" parent="YN6oH1AB4B91Iy4vesWQ-25">
          <mxGeometry x="95" y="408.5" width="67" height="39" as="geometry" />
        </mxCell>
        <mxCell id="YN6oH1AB4B91Iy4vesWQ-38" value="&lt;b&gt;&lt;font style=&quot;font-size: 15px;&quot;&gt;Transformer Block&lt;/font&gt;&lt;/b&gt;" style="text;html=1;align=center;verticalAlign=middle;whiteSpace=wrap;rounded=0;shadow=0;" vertex="1" parent="YN6oH1AB4B91Iy4vesWQ-25">
          <mxGeometry x="19.5" width="140" height="30" as="geometry" />
        </mxCell>
        <mxCell id="YN6oH1AB4B91Iy4vesWQ-39" value="&lt;font style=&quot;font-size: 14px;&quot;&gt;&lt;b&gt;self-attention&lt;/b&gt;&lt;/font&gt;" style="text;html=1;align=center;verticalAlign=middle;whiteSpace=wrap;rounded=0;" vertex="1" parent="1">
          <mxGeometry x="337" y="523.5" width="67" height="47" as="geometry" />
        </mxCell>
        <mxCell id="YN6oH1AB4B91Iy4vesWQ-40" value="&lt;font style=&quot;font-size: 14px;&quot;&gt;&lt;b&gt;cross-attention&lt;/b&gt;&lt;/font&gt;" style="text;html=1;align=center;verticalAlign=middle;whiteSpace=wrap;rounded=0;" vertex="1" parent="1">
          <mxGeometry x="343" y="395.5" width="67" height="47" as="geometry" />
        </mxCell>
        <mxCell id="YN6oH1AB4B91Iy4vesWQ-45" value="" style="edgeStyle=orthogonalEdgeStyle;rounded=0;orthogonalLoop=1;jettySize=auto;html=1;" edge="1" parent="1" source="YN6oH1AB4B91Iy4vesWQ-44" target="YN6oH1AB4B91Iy4vesWQ-3">
          <mxGeometry relative="1" as="geometry" />
        </mxCell>
        <mxCell id="YN6oH1AB4B91Iy4vesWQ-44" value="&lt;font size=&quot;1&quot;&gt;&lt;b style=&quot;font-size: 18px;&quot;&gt;Input: video features&lt;/b&gt;&lt;/font&gt;" style="rounded=0;whiteSpace=wrap;html=1;" vertex="1" parent="1">
          <mxGeometry x="577" y="63" width="236" height="60" as="geometry" />
        </mxCell>
        <mxCell id="YN6oH1AB4B91Iy4vesWQ-24" value="&lt;font style=&quot;font-size: 18px;&quot;&gt;&lt;b&gt;Output Layer&lt;br&gt;&lt;/b&gt;&lt;/font&gt;" style="rounded=0;whiteSpace=wrap;html=1;" vertex="1" parent="1">
          <mxGeometry x="435" y="883" width="227" height="60" as="geometry" />
        </mxCell>
        <mxCell id="YN6oH1AB4B91Iy4vesWQ-48" value="" style="edgeStyle=orthogonalEdgeStyle;rounded=0;orthogonalLoop=1;jettySize=auto;html=1;" edge="1" parent="1" source="YN6oH1AB4B91Iy4vesWQ-46" target="YN6oH1AB4B91Iy4vesWQ-24">
          <mxGeometry relative="1" as="geometry" />
        </mxCell>
        <mxCell id="YN6oH1AB4B91Iy4vesWQ-49" value="&lt;font style=&quot;font-size: 14px;&quot;&gt;&lt;b&gt;temporal dimension&lt;/b&gt;&lt;/font&gt;" style="text;html=1;align=center;verticalAlign=middle;whiteSpace=wrap;rounded=0;" vertex="1" parent="1">
          <mxGeometry x="404" y="662" width="80" height="56" as="geometry" />
        </mxCell>
      </root>
    </mxGraphModel>
  </diagram>
</mxfile>
